<svg width="272" height="45" viewBox="0 0 272 45" fill="none" xmlns="http://www.w3.org/2000/svg">
<rect width="272" height="45" rx="10" fill="#FEE500"/>
<g clip-path="url(#clip0_21_29)">
<path fill-rule="evenodd" clip-rule="evenodd" d="M29 14.1001C24.0292 14.1001 20 17.2131 20 21.0524C20 23.4401 21.5584 25.5451 23.9315 26.7971L22.933 30.4446C22.8448 30.7669 23.2134 31.0238 23.4965 30.837L27.8733 27.9483C28.2427 27.9839 28.6181 28.0047 29 28.0047C33.9705 28.0047 37.9999 24.8919 37.9999 21.0524C37.9999 17.2131 33.9705 14.1001 29 14.1001Z" fill="black"/>
</g>
<path d="M107.336 17.0742C107.336 20.8066 106.311 24.0059 101.758 26.2754L100.924 25.127C103.063 24.0674 104.335 22.8369 105.053 21.3672L101.211 21.7363L101.02 20.4238L105.518 20.1367C105.675 19.5625 105.771 18.9541 105.818 18.3047H101.662V17.0742H107.336ZM110.59 15.8574V20.6973H112.422V21.9414H110.59V28.1895H109.072V15.8574H110.59ZM119.436 17.0742C119.436 20.8066 118.41 24.0059 113.857 26.2754L113.023 25.127C115.163 24.0674 116.435 22.8369 117.152 21.3672L113.311 21.7363L113.119 20.4238L117.617 20.1367C117.774 19.5625 117.87 18.9541 117.918 18.3047H113.762V17.0742H119.436ZM122.689 15.8574V20.6973H124.521V21.9414H122.689V28.1895H121.172V15.8574H122.689ZM130.729 16.5547C133.381 16.5547 135.336 17.8809 135.336 19.8906C135.336 21.7432 133.743 22.9805 131.48 23.1992V25.4688H136.402V26.7129H125.109V25.4688H129.977V23.1992C127.728 22.9805 126.135 21.7432 126.148 19.8906C126.135 17.8809 128.09 16.5547 130.729 16.5547ZM130.729 17.7852C128.924 17.7715 127.625 18.5918 127.639 19.8906C127.625 21.2305 128.924 22.0234 130.729 22.0234C132.561 22.0234 133.846 21.2305 133.846 19.8906C133.846 18.5918 132.561 17.7715 130.729 17.7852ZM145.207 18.8242C145.193 21.0938 146.383 23.3633 148.393 24.2246L147.49 25.4414C146.068 24.7852 145.022 23.4727 144.455 21.8594C143.888 23.6025 142.828 25.0244 141.324 25.7285L140.395 24.457C142.459 23.5684 143.662 21.2031 143.662 18.8242V16.8555H145.207V18.8242ZM150.812 15.8574V28.2305H149.281V15.8574H150.812ZM157.061 18.0039C157.061 19.5215 158.045 21.0254 159.986 21.668L159.221 22.8438C157.84 22.3857 156.855 21.4561 156.322 20.3008C155.769 21.5654 154.743 22.5703 153.301 23.0625L152.494 21.8867C154.49 21.2305 155.529 19.6309 155.529 18.0039V17.8535H152.918V16.6367H159.631V17.8535H157.061V18.0039ZM162.379 15.8574V18.9473H164.102V20.2188H162.379V23.3086H160.861V15.8574H162.379ZM162.379 23.8828V28.2168H160.861V25.0996H154.148V23.8828H162.379ZM174.41 15.8574V20.7793H176.311V22.0371H174.41V28.2168H172.906V15.8574H174.41ZM171.949 17.7578V18.9746H164.662V17.7578H167.588V16.0352H169.105V17.7578H171.949ZM168.354 19.7812C170.131 19.7812 171.457 20.9844 171.457 22.6934C171.457 24.4023 170.131 25.5918 168.354 25.5918C166.549 25.5918 165.223 24.4023 165.236 22.6934C165.223 20.9844 166.549 19.7812 168.354 19.7812ZM168.354 21.0254C167.383 21.0254 166.686 21.6816 166.686 22.6934C166.686 23.7051 167.383 24.3477 168.354 24.334C169.297 24.3477 169.994 23.7051 170.008 22.6934C169.994 21.6816 169.297 21.0254 168.354 21.0254ZM187.152 15.8574V28.2168H185.621V15.8574H187.152ZM183.461 17.1699C183.461 20.8477 182.039 23.9785 177.705 26.0293L176.912 24.8125C180.146 23.2744 181.649 21.1826 181.916 18.373H177.541V17.1699H183.461Z" fill="black" fill-opacity="0.85"/>
<defs>
<clipPath id="clip0_21_29">
<rect width="17.9999" height="18" fill="white" transform="translate(20 13.5)"/>
</clipPath>
</defs>
</svg>
